<?xml version="1.0" encoding="utf-8"?>
<!-- Generator: Adobe Illustrator 22.1.0, SVG Export Plug-In . SVG Version: 6.00 Build 0)  -->
<svg version="1.1" id="Layer_1" xmlns="http://www.w3.org/2000/svg" xmlns:xlink="http://www.w3.org/1999/xlink" x="0px" y="0px"
	 viewBox="0 0 101 34" style="enable-background:new 0 0 101 34;" xml:space="preserve">
<style type="text/css">
	.st0{fill:#456257;}
	.st1{fill:#F27351;}
	.st2{fill:#FFFFFF;}
	.st3{fill:#F3C789;}
</style>
<g>
	<path class="st0" d="M57.8,27.3h-4.5c0-0.4,0-1.1,0-2c0-0.9,0-2,0-3.1c0-0.4,0-1.1,0-2c0-0.9,0-1.6,0-2.1c0-0.9-0.2-1.6-0.5-2
		c-0.3-0.4-0.8-0.6-1.5-0.6c-0.4,0-0.9,0.1-1.5,0.3c-0.6,0.2-1.2,0.5-1.8,0.8c0,0,0,0.1,0,0.2c0,0.1,0,0.3,0,0.5c0,0.8,0,1.5,0,2.3
		c0,0.8,0,1.5,0,2.1c0,1.3,0,2.5,0,3.5c0,1.1,0,1.8,0,2.1h-4.5c0-0.3,0-0.8,0-1.8c0-0.9,0-2,0-3.4c0-0.5,0-1.2,0-2.1
		c0-0.9,0-1.6,0-2c0-0.3,0-0.6-0.1-1c0-0.3-0.1-0.6-0.3-0.8c-0.1-0.3-0.3-0.5-0.6-0.6c-0.2-0.1-0.6-0.2-1.1-0.2
		c-0.5,0-1,0.1-1.5,0.4c-0.6,0.2-1.2,0.5-1.8,0.9c0,0.1,0,0.7,0,1.8c0,1.1,0,2,0,2.6c0,1.1,0,2.2,0,3.6c0,1.3,0,2.2,0,2.6h-4.5
		c0-0.5,0-1.3,0-2.4c0-1.1,0-2.8,0-4.9c0-0.8,0-1.9,0-3.3c0-1.3,0-2.8,0-4.5h4.5l0,1.5l0,0c0.6-0.4,1.4-0.8,2.4-1.2
		c1.1-0.4,2-0.7,2.9-0.7c0.9,0,1.7,0.2,2.4,0.5c0.7,0.4,1.1,0.8,1.5,1.4h0c0.9-0.5,1.9-1,2.9-1.4c1.1-0.4,2.1-0.6,2.9-0.6
		c1.4,0,2.5,0.4,3.3,1.3c0.8,0.8,1.2,2,1.2,3.3c0,1.1,0,2.1,0,2.8c0,0.7,0,1.5,0,2.2c0,1.3,0,2.6,0,3.6
		C57.8,26.1,57.8,26.8,57.8,27.3z"/>
	<path class="st0" d="M74.8,19.4c0,1.5-0.3,2.8-1,3.9c-0.7,1-1.6,1.9-2.8,2.5c-0.9,0.5-2,0.9-3.1,1.1c-1.2,0.2-2.3,0.3-3.3,0.3
		l0,6.8H60c0-0.5,0-1.8,0-4.2c0-2.3,0-4.8,0-7.6c0-1.3,0-2.9,0-4.7c0-1.8,0-3.6,0-5.5c0.4,0,0.8,0,1.3,0c0.5,0,0.9,0,1.1,0
		c1.9,0,3.5,0.1,4.8,0.3c1.2,0.2,2.4,0.5,3.6,1.1c1.3,0.6,2.3,1.4,3,2.4C74.5,16.9,74.8,18.1,74.8,19.4z M70.3,19.6
		c0-0.7-0.2-1.4-0.5-2c-0.3-0.6-0.8-1-1.3-1.4c-0.5-0.3-1.1-0.5-1.7-0.6c-0.6-0.1-1.3-0.2-2-0.2c-0.1,0-0.1,0-0.2,0s-0.2,0-0.2,0
		c0,0.2,0,0.7,0,1.5c0,0.8,0,2,0,3.6c0,0.5,0,1.2,0,2c0,0.8,0,1.4,0,1.7c0.7,0,1.3-0.1,2-0.2c0.7-0.1,1.2-0.3,1.7-0.5
		c0.7-0.4,1.3-0.9,1.7-1.5C70.1,21.4,70.3,20.6,70.3,19.6z"/>
	<path class="st0" d="M79.8,9.8h-1.2c-1,0-1.7-0.8-1.7-1.7v0c0-1,0.8-1.7,1.7-1.7h1.2c1,0,1.7,0.8,1.7,1.7v0
		C81.5,9,80.8,9.8,79.8,9.8z"/>
	<path class="st0" d="M81.5,27.3h-4.5c0-0.5,0-1.5,0-3c0-1.5,0-3,0-4.3c0-1.1,0-2.3,0-3.6c0-1.2,0-2.6,0-4.2h4.5c0,1.4,0,2.7,0,3.8
		c0,1.1,0,2.4,0,3.8c0,2.2,0,4,0,5.1C81.5,26,81.5,26.8,81.5,27.3z"/>
	<path class="st0" d="M100.5,27.3H96c0-0.3,0-1.1,0-2.3c0-1.2,0-2.1,0-2.8c0-0.5,0-1.2,0-2.1c0-0.9,0-1.6,0-2c0-0.9-0.2-1.6-0.5-2
		c-0.3-0.4-0.8-0.6-1.5-0.6c-0.5,0-1.1,0.1-1.7,0.4c-0.7,0.3-1.3,0.6-1.9,0.9c0,0.1,0,0.6,0,1.7c0,1,0,1.9,0,2.6c0,1.1,0,2.3,0,3.8
		c0,1.5,0,2.3,0,2.4h-4.5c0-0.2,0-0.9,0-2.1c0-1.2,0-2.8,0-5c0-1.3,0-2.6,0-3.9c0-1.3,0-2.7,0-4.1h4.5l0,1.4l0,0
		c0.9-0.5,1.9-1,3-1.3c1-0.3,2-0.5,2.8-0.5c1.4,0,2.4,0.4,3.2,1.3c0.8,0.8,1.2,2,1.2,3.4c0,1.2,0,2.2,0,3c0,0.8,0,1.5,0,2
		c0,0.9,0,2,0,3.4C100.5,26.2,100.5,27,100.5,27.3z"/>
	<path class="st0" d="M28.3,32.8c-0.2,0.5-0.6,0.7-1.1,0.7c-1.1,0-2.2,0-3.3,0c-0.5,0-0.8-0.3-0.9-0.7c-0.1-0.5,0.3-1,0.8-1
		c0.9,0,1.8,0,2.7,0c0.1,0,0.1,0,0.2,0c0,0,0,0,0,0c-0.2-0.2-0.5-0.3-0.7-0.5c-0.4-0.3-0.5-0.7-0.2-1.1c0.2-0.4,0.8-0.5,1.1-0.3
		c1,0.7,2.1,1.4,3.1,2.1c0.4,0.2,0.4,0.8,0.2,1.1c-0.2,0.4-0.7,0.5-1.1,0.3c-0.2-0.1-0.4-0.3-0.7-0.4C28.5,32.9,28.4,32.8,28.3,32.8
		z"/>
	<path class="st1" d="M29.4,28.7c-0.5-1.8-1.8-3.2-3.6-3.9c-0.6-0.2-1.2-0.4-1.8-0.6c-0.3-0.1-0.3,0-0.3,0.2c0.1,1,0,2-0.4,2.9
		c-0.2,0.4-0.4,0.7-0.6,1.1c-0.6,0.9-0.3,2.1,0.6,2.7c0.1,0.1,0.3,0.2,0.4,0.3c0.1,0.1,0.2,0.1,0.3,0c0.5-0.4,0.8-1.1,0.6-1.7
		c-0.2-0.5-0.1-0.9,0.1-1.4c0-0.1,0.1-0.1,0.2-0.2c0.1-0.1,0.2-0.1,0.3-0.2c0.2-0.2,0.4-0.3,0.6-0.5c0.1-0.1,0.2,0,0.2,0.1
		c0,0.1,0,0.2,0.1,0.3c0,0.1,0,0.2,0.1,0.3c0,0,0,0,0,0.1c0,0.1,0.1,0.4,0.2,0.5c0.1,0.1,0.2,0.2,0.4,0.4c0,0,0,0,0.1,0
		c0,0,0,0,0.1,0.1c0.3,0.1,0.6,0.3,0.9,0.4c0.1,0.1,0.3,0.1,0.3,0.3c0,0,0,0.1,0,0.1c0.2,0.3,0.3,0.6,0.5,0.9c0.1,0.2,0.2,0.2,0.3,0
		c0.2-0.2,0.3-0.5,0.4-0.7C29.6,29.5,29.5,29.1,29.4,28.7z"/>
	<path class="st2" d="M33.1,28c-0.3,0-0.5-0.1-0.6-0.3l-0.3-0.4c-1.2-1.5-2.5-3-3.5-4.6c-0.5-0.8-1-1.8-1.7-3
		c-0.4-0.7-0.7-1.5-1.1-2.2c-0.1-0.3-0.3-0.5-0.4-0.8c0,0,0,0.1-0.1,0.1c-0.1,0.2-0.2,0.4-0.3,0.7c-0.2,0.5-0.5,1-0.7,1.4
		c-0.6,1.2-1.2,2.4-1.9,3.5c-0.6,1-1.4,2-2.1,3c-0.3,0.4-0.6,0.7-0.8,1.1c-0.2,0.3-0.4,0.5-0.6,0.7c-0.1,0.2-0.3,0.3-0.4,0.5
		C18.5,27.9,18.3,28,18,28c-1.6,0-3.1,0-4.7,0c-1,0-5.4,0-5.4,0c0,0-0.1,0-0.1,0l-0.1,0l-0.2,0l0.1-0.2c0.2-0.2,0.3-0.4,0.5-0.5
		c0.3-0.4,0.7-0.8,1-1.1c0.2-0.2,0.4-0.4,0.5-0.6c0.6-0.7,1.2-1.4,1.8-2.2c1.3-1.7,2.7-3.4,4-5.1c1.5-2,2.8-4,3.9-5.9l0.4-0.7
		c0.7-1.2,1.4-2.5,2.1-3.8c0.6-1.2,1.2-2.4,1.8-3.6c0.2-0.4,0.4-0.7,0.5-1.1c0.2-0.4,0.3-0.7,0.5-1.1c0.1-0.2,0.2-0.4,0.3-0.6
		c0,0,0.1-0.1,0.1-0.1c0,0,0,0,0,0c0,0,0-0.1,0-0.1c0.1-0.3,0.3-0.6,0.5-1l0.1-0.2l0.5,1.3c0.1,0.1,0.1,0.3,0.2,0.4
		c0.1,0.3,0.3,0.6,0.4,0.9c0.2,0.4,0.4,0.8,0.5,1.1C27.6,4.5,28,5.3,28.4,6C29.9,8.8,31,11,32.2,13c1,1.8,2.2,3.6,3.7,5.5
		c1.7,2.2,3.5,4.4,5.2,6.5l0.3,0.3c0.5,0.6,0.9,1.1,1.4,1.7c0.2,0.3,0.5,0.5,0.7,0.8l0.1,0.2l-0.2,0c0,0-0.1,0-0.1,0
		c-0.1,0-0.1,0-0.2,0c-1.2,0-2.4,0-3.6,0c0,0-3.2,0-3.9,0C34.8,28,34,28,33.1,28L33.1,28z"/>
	<path class="st3" d="M33.1,27.4c-0.1,0-0.1,0-0.1,0l-0.3-0.4c-1.2-1.5-2.4-3-3.4-4.6c-0.5-0.8-1-1.8-1.6-2.9
		c-0.4-0.7-0.7-1.4-1.1-2.2c-0.1-0.3-0.3-0.5-0.4-0.8l-0.6-1.2l-0.6,1.3c-0.1,0.2-0.2,0.4-0.3,0.6c-0.2,0.5-0.5,1-0.7,1.4l0,0
		c-0.6,1.2-1.2,2.3-1.9,3.5c-0.6,1-1.4,2-2.1,2.9l0,0c-0.3,0.4-0.5,0.7-0.8,1.1c-0.2,0.2-0.4,0.5-0.6,0.7c-0.1,0.2-0.3,0.3-0.4,0.5
		c0,0,0,0-0.1,0c-1.6,0-3.1,0-4.7,0c-0.7,0-3.2,0-4.5,0c0.2-0.3,0.5-0.5,0.7-0.8c0.2-0.2,0.4-0.4,0.5-0.6c0.6-0.7,1.2-1.4,1.8-2.2
		c1.3-1.7,2.7-3.4,4-5.1c1.5-2,2.8-4,4-6l0.4-0.7c0.7-1.2,1.4-2.5,2.1-3.8c0.6-1.2,1.2-2.4,1.8-3.6l0-0.1c0.2-0.3,0.3-0.7,0.5-1
		C24.9,3,25,2.7,25.2,2.3l0,0c0.1-0.2,0.2-0.4,0.2-0.5l0.1-0.1L25.8,2c0.1,0.3,0.3,0.6,0.4,0.9c0.2,0.4,0.4,0.7,0.5,1.1
		c0.4,0.8,0.7,1.6,1.1,2.3c1.5,2.8,2.6,4.9,3.8,7c1,1.9,2.3,3.7,3.8,5.6c1.7,2.2,3.5,4.4,5.2,6.5l0.3,0.3c0.5,0.6,0.9,1.1,1.4,1.6
		c-0.9,0-1.9,0-2.8,0c0,0-3.2,0-3.9,0C34.8,27.4,34,27.4,33.1,27.4L33.1,27.4z"/>
	<path class="st2" d="M12.8,28.2c-1.8,0-3.3-0.2-4.7-0.5c-1.3-0.3-2.6-0.8-3.6-1.4c-1.2-0.7-2.2-1.7-2.9-2.8
		c-0.7-1.2-1.1-2.5-1.1-3.9c0-1.4,0.3-2.7,1-3.8c0.7-1.1,1.6-2,2.7-2.7c1.1-0.7,2.4-1.3,3.8-1.6c1.4-0.4,3-0.5,4.7-0.5h1.5l0.6,5.5
		h-1.6c-0.7,0-1.4,0-2,0.1c-0.6,0.1-1.3,0.2-1.9,0.4c-0.7,0.2-1.3,0.6-1.7,1.1c-0.4,0.4-0.6,0.9-0.6,1.4c0,0.6,0.2,1.1,0.5,1.5
		c0.4,0.5,0.9,0.8,1.6,1.1l0,0c0.5,0.2,1.2,0.4,1.9,0.5c0.8,0.1,1.4,0.1,2,0.1h2l-0.7,5.5H12.8z"/>
	<path class="st0" d="M14.1,23.7l-0.4,3.6c-0.1,0-0.2,0-0.4,0c-0.1,0-0.3,0-0.5,0c-1.7,0-3.2-0.2-4.4-0.5C7.1,26.5,6,26.1,5,25.5
		C3.9,24.9,3,24,2.4,23c-0.6-1-0.9-2.2-0.9-3.4c0-1.2,0.3-2.3,0.9-3.3c0.6-1,1.4-1.7,2.4-2.4c1-0.7,2.2-1.2,3.6-1.5
		c1.4-0.3,2.9-0.5,4.5-0.5c0.2,0,0.3,0,0.4,0c0.1,0,0.2,0,0.3,0l0.4,3.6c-0.1,0-0.2,0-0.3,0c-0.1,0-0.2,0-0.3,0
		c-0.7,0-1.5,0-2.2,0.1c-0.7,0.1-1.4,0.2-2.1,0.5c-0.9,0.3-1.6,0.7-2.1,1.4c-0.5,0.6-0.8,1.3-0.8,2.1c0,0.9,0.2,1.6,0.7,2.1
		c0.5,0.6,1.2,1,2,1.3c0.6,0.2,1.3,0.4,2.1,0.5c0.8,0.1,1.5,0.2,2.1,0.2c0.2,0,0.3,0,0.5,0C13.8,23.7,14,23.7,14.1,23.7z"/>
</g>
</svg>
